<?xml version="1.0"?>
<svg xmlns="http://www.w3.org/2000/svg" xmlns:xlink="http://www.w3.org/1999/xlink" xmlns:svgjs="http://svgjs.com/svgjs" version="1.1" width="512" height="512" x="0" y="0" viewBox="0 0 682 682.66669" style="enable-background:new 0 0 512 512" xml:space="preserve" class=""><g transform="matrix(1,0,0,1,95,25)"><path xmlns="http://www.w3.org/2000/svg" d="m321.5 0h-325.917969v640h497.5v-519.757812zm134.082031 602.5h-422.5v-565h276.589844l145.910156 102.257812zm0 0" fill="#adfc92" data-original="#000000" style="" class=""/><path xmlns="http://www.w3.org/2000/svg" d="m70.582031 565h347.5v-251.25h-347.5zm37.5-213.75h272.5v176.25h-272.5zm0 0" fill="#adfc92" data-original="#000000" style="" class=""/><path xmlns="http://www.w3.org/2000/svg" d="m70.582031 74.898438h37.5v106.351562h-37.5zm0 0" fill="#adfc92" data-original="#000000" style="" class=""/><path xmlns="http://www.w3.org/2000/svg" d="m145.582031 74.898438h37.5v106.351562h-37.5zm0 0" fill="#adfc92" data-original="#000000" style="" class=""/><path xmlns="http://www.w3.org/2000/svg" d="m220.582031 74.898438h37.5v106.351562h-37.5zm0 0" fill="#adfc92" data-original="#000000" style="" class=""/><path xmlns="http://www.w3.org/2000/svg" d="m295.582031 74.898438h37.5v106.351562h-37.5zm0 0" fill="#adfc92" data-original="#000000" style="" class=""/></g></svg>
