<svg id="Capa_1" enable-background="new 0 0 512 512" height="512" viewBox="0 0 512 512" width="512" xmlns="http://www.w3.org/2000/svg" xmlns:xlink="http://www.w3.org/1999/xlink"><linearGradient id="SVGID_1_" gradientUnits="userSpaceOnUse" x1="256" x2="256" y1="512" y2="0"><stop offset="0" stop-color="#addcff"/><stop offset=".5028" stop-color="#eaf6ff"/><stop offset="1" stop-color="#eaf6ff"/></linearGradient><linearGradient id="SVGID_2_" gradientUnits="userSpaceOnUse" x1="256" x2="256" y1="158.676" y2="353.324"><stop offset="0" stop-color="#5558ff"/><stop offset="1" stop-color="#00c0ff"/></linearGradient><g><circle cx="256" cy="256" fill="url(#SVGID_1_)" r="256"/><g><g><path d="m149.238 158.676h-35.391c-4.886 0-8.848 3.961-8.848 8.848v35.391c0 4.886 3.961 8.848 8.848 8.848h35.391c4.886 0 8.848-3.961 8.848-8.848v-35.391c0-4.887-3.961-8.848-8.848-8.848zm0 70.781h-35.391c-4.886 0-8.848 3.961-8.848 8.848v35.391c0 4.886 3.961 8.848 8.848 8.848h35.391c4.886 0 8.848-3.961 8.848-8.848v-35.391c0-4.887-3.961-8.848-8.848-8.848zm0 70.781h-35.391c-4.886 0-8.848 3.961-8.848 8.848v35.391c0 4.886 3.961 8.848 8.848 8.848h35.391c4.886 0 8.848-3.961 8.848-8.848v-35.391c0-4.886-3.961-8.848-8.848-8.848zm248.914-141.562h-213.523c-4.886 0-8.848 3.961-8.848 8.848v35.391c0 4.886 3.961 8.848 8.848 8.848h213.523c4.886 0 8.848-3.961 8.848-8.848v-35.391c0-4.887-3.961-8.848-8.848-8.848zm0 70.781h-213.523c-4.886 0-8.848 3.961-8.848 8.848v35.391c0 4.886 3.961 8.848 8.848 8.848h213.523c4.886 0 8.848-3.961 8.848-8.848v-35.391c0-4.887-3.961-8.848-8.848-8.848zm0 70.781h-213.523c-4.886 0-8.848 3.961-8.848 8.848v35.391c0 4.886 3.961 8.848 8.848 8.848h213.523c4.886 0 8.848-3.961 8.848-8.848v-35.391c0-4.886-3.961-8.848-8.848-8.848z" fill="url(#SVGID_2_)"/></g></g></g></svg>